<svg xmlns="http://www.w3.org/2000/svg" viewBox="0 0 1249.99 631.22"><defs><style>.cls-1{fill:#5850a0;}.cls-2{fill:#2b296d;}</style></defs><g id="Capa_2" data-name="Capa 2"><g id="Capa_1-2" data-name="Capa 1"><path class="cls-1" d="M2.18,101.71c-3-11.78-3.58-25,2.79-36.85S26.23,43.55,39.28,46c14.63,2.73,20.31,17.55,25,30.28,17.7,48.06,48.48,89.88,81,129.66,7.35,9,15.26,18.24,26.89,22.45s28.09,1.62,36-8.9c7.39-9.87,4.68-22.14,1-32.37-17.3-48.3-48.91-90.8-91-122.3C108.49,57.54,98,50.57,92.4,40.19s-4.6-25.41,6.19-34c8.12-6.46,19.71-7.54,28.9-4.81s16.41,8.65,22.93,14.85c53.49,50.93,73,126.21,121.78,181,2.41,2.7,5.09,5.46,8.93,6.28,8.78,1.88,17.32-7,21.63-15C315.35,165,317,138.37,332.33,116.09c2.54-3.7,5.76-7.45,10.16-8.92,9.92-3.31,17,6.69,18.58,15.58,3.47,19.29-1.49,39.27-8.91,59.4-23.79,64.5-.88,137,56.29,175.14,49.21,32.85,107.81,55,170.58,64.23,64.13,9.41,168.69-34.14,259.79-78.94,2.18-1.07,4.32-2.19,6.45-3.37,15.37-8.53,46.73-25.12,74.31-39.62a148.23,148.23,0,0,1,90.08-15.5,106,106,0,0,0,12.83,1.06,48.16,48.16,0,0,1,8.9,1C1108.93,302.75,1249.8,428.8,1250,468c.25,50.36-196.39,101.22-199.86,102.56-33.33,12.91-68.81,24.93-93.31,31.36-80.71,21.2-171.41,30.68-248.91,29.1-109.39-2.23-239.34-64.8-339.26-153.65l77.41-97.73L426.67,369l-81.1,86.86q-9.51-9.31-18.56-18.93l81.22-78.38-22.41-16.31-80.76,70a528.59,528.59,0,0,1-36.89-49.23,147.4,147.4,0,0,0-38.89-40.14A1297,1297,0,0,1,52.41,175.57C30.92,154.1,9.72,131,2.18,101.71Z"/><path class="cls-2" d="M408.23,358.56,327,436.93l-.56.55-21.91-24.74.52-.46,80.76-70Z"/><path class="cls-2" d="M446.06,379.67,368.65,477.4l-.16.21-23.11-21.54.19-.2L426.67,369Z"/></g></g></svg>