<?xml version="1.0" encoding="utf-8"?>
<!-- Generator: Adobe Illustrator 26.1.0, SVG Export Plug-In . SVG Version: 6.00 Build 0)  -->
<svg version="1.1" id="Capa_1" xmlns="http://www.w3.org/2000/svg" xmlns:xlink="http://www.w3.org/1999/xlink" x="0px" y="0px"
	 viewBox="0 0 1567.2 1596.4" style="enable-background:new 0 0 1567.2 1596.4;" xml:space="preserve">
<style type="text/css">
	.st0{fill:#DEE3F3;}
	.st1{fill:#D2DCEE;}
	.st2{fill:#9EA1AB;}
	.st3{fill:#5850A0;}
	.st4{fill:#2B296D;}
	.st5{fill:#2B296E;}
	.st6{fill-opacity:0;}
	.st7{fill:#FCC043;}
</style>
<g id="Capa_2_00000144320961648642070620000000437862463240428201_">
	<g id="Capa_1-2">
		<path class="st0" d="M617.7,111.2c0,0,30.5,93.8,144,87s255.7,100.9,255.7,100.9l130.9,104.1c0,0,208.9-31.2,142.5-133.6
			S1067.2,79.3,1067.2,79.3s-171.5-43-278.6-21.2s-139.7,3.3-139.7,3.3L617.7,111.2z"/>
		<path class="st1" d="M31.6,1026.5c-84-283.6,0.2-605.2,240.9-814.4c327-284.3,819.2-253.6,1099.3,68.6
			c176.9,203.5,236.7,465.3,167,709.1c-27.6,96.5-267.3,330.8-465.6,477.1c-93.7,69.2-178.2,118.6-226.6,124.6
			c-247.2,30.4-485.3-81.1-659.2-281.2C115.7,1227.9,62.6,1131.1,31.6,1026.5z M857.1,195.9c26,4.6,52.6,5.8,78.5,11
			c48.6,10,93.1,34.1,128.2,69.2c21.6,21.8,39.8,48,66.4,63.2c22.8,13.1,55.2,14.4,74.1-2c3.2-2.8,6-6.1,8.2-9.7
			c9.1-15,8.1-34,4.8-51.2c-14.8-76.9-72.3-142.1-144.5-172.3c-107.3-44.9-201.5-32.8-246.4,6.2c-0.9,0.8-1.8,1.6-2.7,2.4
			c-15.9,14.9-24.1,40.4-12.6,59C820.4,186.9,839.4,192.8,857.1,195.9L857.1,195.9z M703.9,153.6c16.1,1.4,33.1-0.5,46.8-9
			c1.9-1.2,3.8-2.6,5.5-4.1c22.8-19.8,19-59.2-13.5-68.1c-16.5-4.5-38.3,4.7-53.8,18.1c-8.9,7.7-15.7,16.8-18.3,25.6
			c-2,6.7-2.2,14.1,0.8,20.4C676.9,148.1,691.2,152.4,703.9,153.6z"/>
		<path class="st2" d="M1148.2,1368.8c0,0-3.6,5.6-10.4,15.4C1141.7,1379.4,1145.1,1374.2,1148.2,1368.8z"/>
		<path class="st2" d="M187.5,1310.2c174,200.1,412,311.7,659.2,281.2c48.4-6,132.8-55.4,226.6-124.6c22.9-26.4,44.4-53.9,64.5-82.6
			c-25.7,33.6-104.3,113.1-293.2,153c-268.2,56.6-635.8-266.2-703.1-360.7c-32.6-45.9-74.9-103.2-109.8-150.1
			C62.6,1131.1,115.8,1227.9,187.5,1310.2z"/>
		<path class="st3" d="M1318.5,1162.9c4.7,4.7,9.6,9.6,13,15.2c3,5.1,4.9,10.8,5.6,16.7c1.9,14.5-1.6,26.2-5.6,37.1
			c-33.2,90.2-103.3,150.7-197.7,170.4c-8.9,1.9-18.3,3.4-29.2,0.6c-33.8-8.4-66.5-51-91.5-87.6c-6.7-9.7-13.6-20-15.8-29.7
			c-1.5-6.7-0.5-12.4,0.8-17.6c14.3-57.7,66-81.8,112.4-107.8c33.1-18.5,64.7-39.3,94.8-62.4c14.3-11,4.6-43,27.8-26.4
			C1256.7,1088.3,1296.8,1141.3,1318.5,1162.9z"/>
		<path class="st4" d="M1072.7,1355.5c-7.8,3.4-17.5,16.9-25.2,9c-7.9-8.2-18.6-19.7-25.3-28.3c-11.4-14.6-21.6-30.2-30.5-46.4
			c-3.2-5.8-6.3-12.1-5.9-17.4c0.4-4.9,3.7-8,6.9-10.7c34.3-29.3,73.5-52.7,110.8-78.4c18.8-12.9,37.2-26.3,54.1-41.4
			c15.9-14.1,32.6-60,50.1-71.6c26.8-17.7,59.4,34,54.2,70.6c-6.8,47.5-171.4,157.2-198.6,188.5
			C1029.5,1368.4,1072.7,1355.5,1072.7,1355.5z"/>
		<path class="st3" d="M1221.2,669.7c2.1,6,4.1,11.9,5.9,17.9v0.1c6.3,19.9,11.5,40.1,15.6,60.5c12.9,65,14.2,131.7,3.9,197.1
			l-31.3,199c-12.7,80.4-82.1,139.7-163.5,139.5l-224.8-0.5c-45.1-0.1-90-5.6-133.7-16.4c-11.3-2.8-22.5-5.9-33.5-9.3h-0.1
			c-11.8-3.8-23.5-7.9-35.2-12.5c-8.6-3.2-17.1-6.8-25.6-10.6c-10.6-4.7-21.2-9.8-31.6-15.3c-62.4-32.6-118.1-76.6-164.3-129.8
			l-76.1-87.6c-11.7-13.5-22.7-27.7-32.8-42.4C159.4,763,193.4,496.7,373.2,340.5c177.9-154.6,439.1-151.3,612.7-2.2
			c3.8,3.2,7.6,6.5,11.3,10l0,0.1c13.2,12.1,25.6,24.9,37.4,38.4l75.8,87.2c46.4,53.4,82.3,115,105.9,181.7L1221.2,669.7z"/>
		<path class="st4" d="M511.4,270c11-7,23.8-10.6,36.9-10.4c17.5,0.4,37.3,12.3,36.3,29.8c-0.4,6.6-3.8,12.7-7.2,18.3
			c-9.6,15.5-21.6,30.7-38.5,37.8s-39.4,3.2-48.6-12.6c-6.2-10.8-5-24.5,0.1-35.8s13.6-20.7,22-29.8L511.4,270z"/>
		<path class="st4" d="M423,404.8c12.2-3,24-8.8,32.5-18.1s13.3-22.4,11-34.7c-1.9-10.3-8.3-19.8-7.5-30.2
			c0.9-11.3,10.1-20.2,13.5-31.1c0.7-2.3,1.1-5.1-0.5-6.9c-1.1-1.1-2.6-1.8-4.1-1.9c-3-0.6-6.1-0.7-9.2-0.5
			c-14.6,7.8-28.7,16.5-42.4,25.8l0,0c-16.1,18.1-28.2,41.6-32.8,56.8c-3.1,10.4-4.7,22.5,1.4,31.5
			C392.8,406.9,409.5,408.1,423,404.8z"/>
		<path class="st4" d="M276.8,456.2c-0.8,4-0.8,8.2-0.1,12.2c1.6,7.6,6.7,14.1,13,18.7c15.6,11.4,38,10.8,54.6,1
			s27.6-27.5,32.1-46.2c2-8.2,2.8-17-0.5-24.8c-1.8-4-4.4-7.6-7.6-10.7c-12-12.2-31-17.5-47.3-13L276.8,456.2z"/>
		<path class="st4" d="M456.1,434c10.9,4,18.1,15.3,18.9,26.9s-4.1,23-11.8,31.7c-8.4,9.6-20.7,16.3-33.3,15.5
			c-13.8-1-26.3-11.6-29.8-25C392.5,454,428.3,423.8,456.1,434z"/>
		<path class="st4" d="M525.7,364.6c10.4,3.8,17.6,14.1,19.4,25s-1,22.2-6.2,31.9c-4.6,8.6-11.1,16.4-19.6,21s-19.2,5.9-28.1,1.8
			c-13.5-6.1-19.6-23.1-16.6-37.6C478.6,386.9,502.3,355.9,525.7,364.6z"/>
		<path class="st4" d="M562.6,489.8c7.5,17.6-0.7,40.4-17.8,48.9s-40.5,1-49.2-16C472.4,477.6,541.8,440.9,562.6,489.8z"/>
		<path class="st4" d="M236.4,544.7c5.8,5.3,13.8,9.4,21.7,12.7s15.9,6.8,24.5,7.3s17.8-2.3,22.8-9.3c6-8.4,4-20.5-1.9-29
			s-15-14-24-19.2c-7.5-4.4-16.6-7.8-25.1-8.1L236.4,544.7z"/>
		<path class="st4" d="M372.9,498.2c3.4,1.2,5.9,4,8.3,6.7c7.4,8.3,15.3,17.9,14.5,29c-0.9,13.5-14.4,22.7-27.3,26.6
			c-9,2.8-19.7,3.7-27.2-2C317,539.9,341.4,486.7,372.9,498.2z"/>
		<path class="st4" d="M578,252.1c20.8,0.1,43.5-7.1,54.6-24.2c-24.7,2.5-49.2,7-73.2,13.4c0.1,1.1,0.4,2.1,0.8,3.1
			C563.1,250.7,571.2,252.1,578,252.1z"/>
		<path class="st4" d="M568.4,340.8c7.2-4.6,15.7-6.7,24.2-6c4.4,0.4,9,1.7,11.7,5.2c4.2,5.7,1.2,13.8-2.4,19.9
			c-5,8.5-11.1,16.8-20.1,20.8s-21.2,2.1-26-6.5c-5.6-10,1.2-22.2,7.7-31.6L568.4,340.8z"/>
		<path class="st4" d="M794.9,285.9c5.5,6.7,12.8,11.6,20,16.4c5.6,3.7,11.4,7.5,18.1,8.6c6.4,1.1,12.9-0.5,19.2-2
			c6.5-1.6,13.2-3.3,18.5-7.4s8.9-11.2,6.8-17.5c-1-3.2-3.3-5.8-5.6-8.2c-5.8-6.4-12.3-12.3-19.2-17.5l0,0
			c-14.4-5.7-29.1-10.6-43.9-14.8c-2.9,0.4-5.8,1.3-8.4,2.7C784.7,254.4,784.5,273.1,794.9,285.9z"/>
		<path class="st4" d="M926.3,336.5c12.3,4.3,27.1,2.8,36.9-5.8c2.2-1.8,3.9-4.2,5-6.8l-63.3-41.5c-6,3.2-13.6,15.1-12.8,22
			c0.4,3,2.1,5.6,3.9,8.1C903.8,323,914,332.2,926.3,336.5z"/>
		<path class="st4" d="M902,359.5c0.4,2.7,0,5.4-1.1,7.9c-1.2,2-2.8,3.8-4.7,5.1c-19.7,15.7-66.7,9.8-55.7-24.6
			C849.9,318.7,899.1,332,902,359.5z"/>
		<path class="st4" d="M914.7,377.5c0.2-5,4.6-8.8,8.9-11.4c10.2-6,23.8-8.6,33.6-2.1s12.7,21.2,6.9,31.6s-18.8,15.6-30.5,13.5
			c-14.6-2.7-26.5-18.2-22.6-32.5l6.5-2.2L914.7,377.5z"/>
		<path class="st4" d="M988.8,373.8c5.6,3,12,4.9,18.3,4.1c5.1-0.6,9.7-3.3,12.9-7.3c-7.4-7.7-15-15.2-22.8-22.3l0-0.1
			c-3.7-3.4-7.5-6.8-11.3-10c-1.1-1-2.2-1.9-3.3-2.8c-6.5,3.9-11,11-10.1,18.4l-2,1.6C974.7,363.2,981,369.6,988.8,373.8z"/>
		<path class="st4" d="M867.6,405.4c2.8-6.2,9.7-9.9,16.5-10s13.3,2.8,18.7,6.9c5.2,4,9.7,9.6,9.6,16.1
			c-0.1,10.4-12.5,17.4-22.7,15.1s-17.7-10.9-22.9-19.9L867.6,405.4z"/>
		<path class="st4" d="M231.7,829.2l0.4,0.2c17.2,5.7,39-2.1,45.1-19.1c3.9-11.1,0.9-23.5-4.9-33.8c-9.5-17-36.9-37.5-57.6-30.9
			C217.8,773.9,223.5,801.9,231.7,829.2z"/>
		<path class="st4" d="M269.7,920c7.7,0,15.5-2.7,20.1-8.8c7-9.2,4.1-22.8-2.3-32.4c-7.6-11.3-29-28.5-44-22.5
			c-0.8,0.3-1.6,0.7-2.4,1.2C249.1,879,258.7,899.9,269.7,920z"/>
		<path class="st4" d="M359.2,865.1c-9.1,10.8-25.9,13.8-38.8,8s-21.7-19.2-23.4-33.2C289.6,777.5,390.8,827.6,359.2,865.1z"/>
		<path class="st4" d="M338,900.9c13.9-0.1,25,15,22.5,28.7s-16.4,23.6-30.3,23.6c-5.2,0-10.6-1.3-14.4-4.8c-2-2-3.6-4.4-4.7-7
			c-6.7-15.8,0.7-34.1,16.5-40.7c3.2-1.4,6.7-2.2,10.2-2.4L338,900.9z"/>
		<path class="st4" d="M321.6,995.6c2.2-1.2,3.8-3.3,4.3-5.8c0.4-2.5-0.4-5-1.4-7.3c-3.6-9-26.8-40.5-43.4-43
			c4.1,6.7,8.5,13.4,13,20C302.6,971.8,311.7,983.9,321.6,995.6z"/>
		<path class="st4" d="M855.2,935.1L855.2,935.1c5.4-1.4,8.8-6.9,7.5-12.3l-3-12.3c-1.3-5.5-6.8-8.8-12.3-7.5s-8.8,6.8-7.5,12.3
			l3,12.3C844.2,933.1,849.7,936.4,855.2,935.1z"/>
		<path class="st4" d="M895,900.5L895,900.5c-2.1,5.2-8,7.7-13.2,5.7l-11.8-4.7c-5.2-2.2-7.6-8.2-5.4-13.3c2.1-5,7.9-7.5,13-5.6
			l11.8,4.7C894.5,889.4,897.1,895.3,895,900.5z"/>
		<path class="st4" d="M376.9,1059.3l26.1,30.1c46.2,53.1,102,97.1,164.4,129.7c10.4,5.5,20.9,10.6,31.6,15.3
			c19.8,8.8,40.1,16.5,60.7,23h0.1c62.6-15,117.7-58.3,111.3-130.2c-7.7-87.6-111-158.3-188.2-183c-52.8-16.8-119.8-5-156.4,35.5
			c-3.8,4.3-7.9,8.3-12.3,12c-12.2,9.9-22,22.4-28.8,36.6C380.8,1038,377.9,1048.5,376.9,1059.3z"/>
		<path class="st4" d="M1096.8,844c71.8,16.7,123.1-34.3,146-95.9c-4.1-20.4-9.3-40.6-15.6-60.5v-0.1c-1.8-6-3.8-11.9-5.9-17.9
			l-5-14.1c-23.6-66.7-59.5-128.3-105.9-181.7l-25.8-29.7c-10.8-0.5-21.7,0.9-32.1,4.1c-15.9,5-32.7,10.4-44.7,21.1
			c-2.6,2.4-5.4,4.6-8.4,6.5c-47.4,29.8-67.1,100.2-57.5,156.2C955.5,712,1011.2,824.1,1096.8,844z"/>
		<path class="st1" d="M462.8,1025c1.5-17.6,12.8-33,28.1-41.3c9.6-5,20.6-6.6,31.2-4.7c9.1,0,17.9,2.8,25.4,7.8
			c11.6,7.8,19.6,21,22.1,34.6c4.7,25.7-6.3,51.6-30,63.6c-21.2,10.7-46-2.7-61.3-17.7C467.2,1056.2,461.5,1040.7,462.8,1025z"/>
		<path class="st1" d="M995.5,562c1.5-17.6,12.8-33,28.1-41.3c9.6-5,20.6-6.7,31.2-4.7c9.1,0,17.9,2.7,25.4,7.8
			c11.6,7.8,19.6,21,22.1,34.6c4.7,25.7-6.3,51.6-30,63.6c-21.1,10.7-46-2.7-61.3-17.7C999.9,593.2,994.2,577.7,995.5,562z"/>
		<path class="st4" d="M917.5,1057.2c5.1-4.4,11.5-3,16,1.1c6.7,5.9,15,9.5,23.9,10.5c8.7,0.8,18-0.8,25.3-5.7
			c16.2-10.9,20.3-32.9,13.8-50.4c-1.9-4.4,0.2-9.6,4.6-11.5c4.2-1.8,9-0.1,11.1,3.9c14.1,23.7,4.8,58.5-17.2,74.2
			c-23.6,16.9-58.5,15.3-78.8-6.2C912.1,1068.8,913,1061.1,917.5,1057.2z"/>
		<path class="st4" d="M105.3,89.3c24.3,6.2,49-8.4,55.2-32.7c6.2-24.3-8.4-49-32.7-55.2c-24.3-6.2-49,8.4-55.2,32.7
			C66.3,58.4,80.9,83.1,105.3,89.3C105.2,89.3,105.2,89.3,105.3,89.3z"/>
		<path class="st4" d="M307.6,215.2C262.4,153.7,210,102.6,153.9,62.9c-3.2-2.2-7.5-1.5-9.8,1.7c0,0-0.1,0.1-0.1,0.1
			c-2,2.9-1.6,6.7,0.8,9.2c48.2,48.6,90.6,108.6,123.2,178.6c6.3,13.6,20.8,18.2,32.8,9.1S317,233,310,219.1
			C309.3,217.8,308.5,216.5,307.6,215.2z"/>
		<path class="st5" d="M418.5,1019.5l7.1,8.8l99.5-80.6l-7.1-8.8L418.5,1019.5z"/>
		<path class="st6" d="M418.5,1019.5l7.1,8.8l99.5-80.6l-7.1-8.8L418.5,1019.5z"/>
		<path class="st5" d="M952.5,545.5l7.4,8.5l93.6-81.4l-7.4-8.5L952.5,545.5z"/>
		<path class="st6" d="M952.5,545.5l7.4,8.5l93.6-81.4l-7.4-8.5L952.5,545.5z"/>
		<path class="st7" d="M1122.8,1461.2l265.1-230.5c26.1-22.7,28.9-62.3,6.2-88.5c-22.7-26.1-62.3-28.9-88.5-6.2l-265.1,230.5
			c-26.1,22.7-28.9,62.3-6.2,88.5C1057,1481.1,1096.6,1483.9,1122.8,1461.2L1122.8,1461.2L1122.8,1461.2z"/>
	</g>
</g>
</svg>
