<?xml version="1.0" encoding="utf-8"?>
<!-- Generator: Adobe Illustrator 26.1.0, SVG Export Plug-In . SVG Version: 6.00 Build 0)  -->
<svg version="1.1" id="Capa_1" xmlns="http://www.w3.org/2000/svg" xmlns:xlink="http://www.w3.org/1999/xlink" x="0px" y="0px"
	 viewBox="0 0 2151.5 2355.4" style="enable-background:new 0 0 2151.5 2355.4;" xml:space="preserve">
<style type="text/css">
	.st0{fill:#5850A0;}
	.st1{fill:#2B296D;}
</style>
<g id="Capa_2_00000182525800543862381200000011202232484037334456_">
	<g id="Capa_1-2">
		<path class="st0" d="M959.1,1928.5c1.3,0.2,5.2-7.5,10.9-10.3c11.6-5.7,25.8-9.5,42.6-9.9c42.8-1,65.7,10.2,75,16.4
			c0.3,0.2,0.5,0.4,0.7,0.7c6,7.8,16.1,20.6,27.6,36.2c0.6,0.9,1.5,1.6,2.5,2.1c0.4,0.2,0.8,0.5,1.1,0.9c2,2.6,4,5.3,6.1,8.2
			c2.2,3,6.4,3.7,9.5,1.5c1.7-1.3,2.7-3.2,2.8-5.3l10.6-615.1l0.1-1.3c8.9-61.9,81.6-221.3,193.6-186.7
			c79.8,24.7,192.2,137.2,282.2,240.2c4.6,5.3,9.1,10.6,13.6,15.8c0.3,0.3,15.6,19.2,16.9,20.7c5.6,6.6,4.2-11.8,5.6-20.4
			c4-24,17.3-56.8,57.2-82.5c49.7-32,90.4-21.9,97.5-19.7c0.8,0.2,1.6,0.4,2.4,0.4c2.5,0.1,8.6,0.4,17.4,0.9
			c3.7,0.2,6.9-2.6,7.2-6.4c0.1-1.1-0.1-2.1-0.6-3.1c-27-61.6-72.6-145.4-126.4-234.8c-12.7-21.2-25.9-42.7-39.5-64.3
			c-4.2-6.8-8.5-13.5-12.8-20.3c-15.3-24.1-30.9-48.3-46.7-72.2c-58.1-87.9-118.1-172.1-170.6-237.4c-15-18.7-31-37.8-47.9-57
			C1294.3,505.8,1155.2,379,982.1,313.4c-0.4-0.2-0.9-0.3-1.4-0.4c-1.8-0.3-3-1.9-2.9-3.7c4.3-57.8,83.9-254.8,33.6-292.1
			c-0.4-0.3-0.7-0.6-0.9-1c-6-10.6-15.9-16.6-30.9-16.2c-29.4,0.8-196.7,50.5-313.4,135.6c-2.3,1.6-32.5,27.2-34,28.4L355.7,404.1
			c-0.3,0.2-37.6,32.8-45.4,39.5c-1.1,1-2.1,2-3,3.2l0,0c-0.1,0.1-3.1,3-4.3,4.4C279.7,476.5,192,572.4,121.9,651.7
			c-21,21.6-100.5,103.4-118.8,119c-4.5,3.8-3.8,4.6,0,3.5c16.2-4.8,33.6-4.7,49.2,1.8c23.3,9.7,73.1,3,101.5-2.1
			c13.5-2.4,26.1-8.3,36.6-17l101.1-83.6c1.4-1.2,3.5-1,4.7,0.3c49.9,55,109.8,119.1,130.9,141.9c0.1,0.1,0.2,0.2,0.2,0.3
			c49.1,67.2,98.7,148.1,147,235.5l0,0c4,7.3,8,14.6,12,21.9s8,14.8,12,22.2c12.2,22.8,24.3,45.9,36.2,69.3
			c4.1,8,8.2,16.1,12.3,24.2l0,0c11.2,22.2,22.3,44.6,33.2,67.2l0,0c77.2,158.6,146.5,320.6,199,450.6
			c27.4,67.8,50.2,136.8,68.3,198.1C948.1,1907.5,956.6,1928.2,959.1,1928.5z"/>
		<path class="st1" d="M1079.7,936.4c-20.6,17.9-48.4-14.1-27.8-32S1100.3,918.5,1079.7,936.4z"/>
		<path class="st1" d="M1613.7,987.3c4.4,4.8,10.2,7.8,15.9,10.6c5.9,3,11.9,6,18.2,6.4s12.7-2.3,14.5-8.2c0.4-1.3,0.5-2.6,0.5-4
			c-15.3-24.1-30.9-48.3-46.7-72.2c-12.7,0.4-20,12.1-18.8,25.6c0.8,8.2,3.9,16.3,6.9,24.2C1606.6,976,1609.2,982.4,1613.7,987.3z"
			/>
		<path class="st1" d="M1703.9,1083.3c3.5,0,7.2-0.8,9.4-3.3c0.8-0.9,1.4-2,1.8-3.2c-12.7-21.2-25.9-42.7-39.5-64.3
			c-5.4,1.2-10.9,3.9-12.8,7.4c-1.3,2.4-1.3,5.4-1.2,8.2c0.5,12.4,3.5,25.3,10.8,36.1S1691.8,1083.3,1703.9,1083.3z"/>
		<path class="st1" d="M1641.5,1065.3c-1.1,2.1-2.8,3.9-5,4.9c-2,0.7-4.2,1-6.3,0.7c-23.5-1.2-56.7-35-30.2-52.5
			C1622.6,1003.5,1653.7,1043.9,1641.5,1065.3z"/>
		<path class="st1" d="M1642,1086.1c2.8-3.4,8.2-3.4,12.9-2.5c11,2.1,22.8,8.8,27.1,19.7s-1.3,23.1-11.2,26.8s-22.7-0.7-30.6-9.5
			c-9.9-11.1-11-29.6-0.4-37.4l6.2,2.5L1642,1086.1z"/>
		<path class="st1" d="M1698.9,1105.5c4.6-8.5,17.6-9.3,26.3-3s13,17.7,12.6,27.8c-0.3,6.4-2.5,12.9-7.8,15.8
			c-4.9,2.7-11.7,1.6-17-1.7s-9.3-8.7-12-14.4c-3.7-7.6-5.3-16.1-4.6-24.5L1698.9,1105.5z"/>
		<path class="st1" d="M1590.9,1076.4c5.4-2.7,12.7-0.9,18,3.2s8.8,10.4,10.8,16.7c1.9,6,2.4,12.9-1,17.5
			c-5.5,7.4-18.7,4.5-25.4-3.4s-8-18.9-7.3-28.5L1590.9,1076.4z"/>
		<path class="st1" d="M680,1256.1L680,1256.1c1.8,0.9,3.6,1.6,5.5,2.1c16.2,3.8,26-9.8,24.7-25.8c-0.7-8.4-3.7-16.7-6.7-24.7
			c-2.3-6.3-4.7-12.8-9.1-17.8c-4.3-4.8-10-7.8-15.5-10.7c-5.7-3-11.6-6-17.7-6.3s-12.5,2.6-14.2,8.6c-0.6,2.5-0.7,5-0.3,7.5l0,0
			C658,1211.2,669,1233.5,680,1256.1z"/>
		<path class="st1" d="M634.4,1164.8c5.2-1.3,10.5-4.2,12.2-7.7c1.2-2.5,1.3-5.5,1.2-8.4c-0.5-12.7-3.3-25.8-10.4-36.8
			s-18.9-19.3-30.7-19.2c-3.1,0-6.4,0.7-8.6,2.8C610.4,1118.3,622.5,1141.4,634.4,1164.8z"/>
		<path class="st1" d="M667.6,1110.3c1-2.2,2.8-4,4.9-5.1c2-0.8,4.1-1,6.1-0.8c22.9,0.9,55.2,35.1,29.2,53.4
			C685.8,1173.3,655.6,1132.3,667.6,1110.3z"/>
		<path class="st1" d="M667.2,1089c-2.8,3.6-8,3.6-12.6,2.7c-10.8-2-22.3-8.7-26.3-19.8s1.3-23.7,11-27.6s22.2,0.4,29.8,9.3
			c9.6,11.2,10.6,30.2,0.2,38.3l-6-2.5L667.2,1089z"/>
		<path class="st1" d="M586.2,1073.3c8.5,6.2,21,5.2,25.5-3.5h2.3c0.8-8.6-0.7-17.2-4.3-25.1c-2.6-5.8-6.5-11.2-11.6-14.6
			s-11.7-4.4-16.5-1.6c-5.2,3-7.4,9.8-7.7,16.3c-0.1,2.2,0,4.3,0.3,6.5l0,0C578.2,1058.6,582.2,1065.9,586.2,1073.3z"/>
		<path class="st1" d="M717,1098.3c-5.3,2.8-12.4,1.1-17.5-3.1s-8.6-10.5-10.5-17c-1.8-6.2-2.3-13.2,1-18c5.4-7.6,18.3-4.9,24.8,3.2
			s7.7,19.2,7,29.2L717,1098.3z"/>
		<path class="st0" d="M957.8,1883.2c14.9-10.5,34.3-18.6,58.5-20.7c63.1-5.5,84.8,15.9,84.8,15.9c0.2,2.9,22,28.2,44.3,61.5
			c20.4,30.4,41.3,67.6,46.8,100.5c11.4,69-219,345.8-250.8,312.1C914.7,2324.2,934.4,1899.6,957.8,1883.2z"/>
		<path class="st0" d="M1647,1431.5c-0.3-3-0.5-6.1-0.4-9.1c0-21,6.9-74.8,70.4-117.3c61.4-41.1,107.7-27.2,107.7-27.2
			s12.2-0.3,31.9-0.4c71-0.1,239.8,3.9,290.3,42.5c53.7,41.1-373,265.5-413.4,248.9C1678.2,1546.2,1647,1431.5,1647,1431.5z"/>
	</g>
</g>
</svg>
