<?xml version="1.0" encoding="utf-8"?>
<!-- Generator: Adobe Illustrator 26.1.0, SVG Export Plug-In . SVG Version: 6.00 Build 0)  -->
<svg version="1.1" id="Capa_1" xmlns="http://www.w3.org/2000/svg" xmlns:xlink="http://www.w3.org/1999/xlink" x="0px" y="0px"
	 viewBox="0 0 3000 3000" style="enable-background:new 0 0 3000 3000;" xml:space="preserve">
<style type="text/css">
	.st0{fill:#DEE3F3;}
	.st1{fill:#D2DCEE;}
	.st2{fill:#9EA1AB;}
	.st3{fill:#5850A0;}
	.st4{fill:#2B296D;}
	.st5{fill:#2B296E;}
	.st6{fill-opacity:0;}
	.st7{fill:#FCC043;}
</style>
<g>
	<g transform="matrix(1,0.0000036973613077861955,-0.0000036973613077861955,1,640.2942504882812,530.0804443359375)">
		<g transform="matrix(1,0,0,1,125.85600280761719,191.25)">
			<path class="st0" d="M-54.4-518c0,0,30.5,93.8,144,87s255.7,100.9,255.7,100.9l130.9,104.1c0,0,208.9-31.2,142.5-133.6
				c-66.3-102.4-223.6-190.3-223.6-190.3s-171.5-43-278.6-21.1c-107.1,21.8-139.7,3.3-139.7,3.3L-54.4-518z"/>
		</g>
	</g>
	<g transform="matrix(1,0.0000036973613077861955,-0.0000036973613077861955,1,620.1945190429688,457.26641845703125)">
		<g transform="matrix(1,0,0,1,429.010009765625,407.9209899902344)">
			<path class="st1" d="M-923.5,253.5c-84-283.6,0.2-605.2,240.9-814.4c327.1-284.3,819.2-253.6,1099.3,68.6
				C593.6-288.8,653.3-27,583.7,216.8c-27.6,96.5-267.3,330.8-465.6,477.1C24.4,763-60,812.5-108.5,818.5
				c-247.2,30.4-485.3-81.1-659.2-281.3C-841.6,452.1-893.4,355.3-923.5,253.5z M-98.1-577.1c26,4.6,52.6,5.8,78.4,11
				c48.3,9.9,93.5,34.3,128.2,69.2c21.6,21.8,39.8,47.9,66.4,63.2c22.8,13.1,55.2,14.4,74.1-2c3.1-2.7,5.9-6,8.2-9.7
				c9.1-15,8.1-33.9,4.8-51.2c-14.8-76.9-72.3-142.1-144.5-172.3C10.1-713.8-84.1-701.7-129-662.7c-0.9,0.8-1.8,1.6-2.7,2.4
				c-15.9,14.9-24.1,40.4-12.6,59C-134.8-586.1-115.8-580.2-98.1-577.1z M-251.3-619.4c16.1,1.4,33.1-0.5,46.8-9
				c2-1.2,3.8-2.6,5.5-4.1c22.8-19.8,19-59.2-13.5-68.1c-16.5-4.5-38.3,4.7-53.8,18.1c-8.9,7.7-15.7,16.8-18.3,25.6
				c-2,6.7-2.2,14.1,0.8,20.4C-278.3-624.9-264-620.5-251.3-619.4z"/>
		</g>
	</g>
	<g transform="matrix(1,0.0000036973613077861955,-0.0000036973613077861955,1,1102.5335693359375,706.7991943359375)">
		<g transform="matrix(1,0,0,1,5.15500020980835,543.0250244140625)">
			<path class="st2" d="M134.5,211.2c0,0-3.5,5.6-10.4,15.4C131.5,217,134.5,211.2,134.5,211.2z"/>
		</g>
		<g transform="matrix(1,0,0,1,192.76499938964844,277.7749938964844)">
			<path class="st2" d="M-1013.8,417.8c174,200.1,412,311.7,659.2,281.2c48.4-6,132.9-55.4,226.6-124.6
				c30.5-35.2,52.5-65.3,64.5-82.6c-25.7,33.6-104.3,113.1-293.2,153c-268.2,56.6-635.8-266.2-703.1-360.7
				c-32.6-45.9-74.9-103.2-109.8-150.1C-1139.5,235.9-1087.7,332.8-1013.8,417.8z"/>
		</g>
	</g>
	<g transform="matrix(1,0,0,1,953.6100463867188,1134.2510986328125)">
		<g transform="matrix(1,0,0,1,97.11199951171875,74.55400085449219)">
			<path class="st3" d="M361.8,46.3c4.7,4.7,9.6,9.6,13,15.2c3.4,5.6,4.9,11.4,5.6,16.7c1.9,14.5-1.6,26.2-5.6,37.1
				c-33.2,90.2-103.3,150.7-197.7,170.4c-8.9,1.9-18.3,3.4-29.2,0.6c-33.8-8.4-66.5-51-91.5-87.5c-6.7-9.7-13.6-20.1-15.8-29.7
				c-1.5-6.7-0.5-12.4,0.8-17.6c14.3-57.7,66-81.8,112.4-107.8c33.3-18.6,64.9-39.5,94.8-62.5c14.3-11,4.6-43,27.8-26.4
				C300-28.2,340.2,24.7,361.8,46.3z"/>
		</g>
		<g transform="matrix(1,0,0,1,99.10199737548828,46.709999084472656)">
			<path class="st4" d="M114,266.8c-7.8,3.4-17.5,16.9-25.2,9c-7.9-8.2-18.6-19.7-25.3-28.3c-11.4-14.8-21.7-30.4-30.5-46.4
				c-3.2-5.8-6.3-12.1-5.9-17.4c0.4-4.9,3.7-8,6.9-10.7c34.4-29.3,73.5-52.7,110.8-78.4c18.8-12.9,37.2-26.3,54.1-41.4
				c15.9-14.1,32.6-60,50.1-71.6c26.8-17.7,59.4,34,54.2,70.6c-6.8,47.5-171.4,157.2-198.6,188.5C70.8,279.6,114,266.8,114,266.8z"
				/>
		</g>
	</g>
	<g transform="matrix(1,0.0000036973613077861955,-0.0000036973613077861955,1,797.2882080078125,546.3340454101562)">
		<g transform="matrix(1,0,0,1,256.4429931640625,331.25201416015625)">
			<path class="st3" d="M261.5-115.7c2.1,6,4.1,11.9,5.9,17.9l0.1,0.1c6.3,19.9,11.5,40.1,15.6,60.5c12.8,64.8,14.2,131.5,3.9,197.1
				l-31.3,199C243,439.3,173.6,498.4,92.1,498.3l-224.8-0.5c-45.2-0.1-90.1-5.6-133.7-16.4c-11.3-2.8-22.4-5.9-33.5-9.4l-0.1,0
				c-11.8-3.8-23.5-7.9-35.2-12.5c-8.6-3.2-17.1-6.8-25.6-10.6c-10.6-4.7-21.2-9.8-31.6-15.3c-62.4-32.6-118.2-76.6-164.4-129.7
				l-76.1-87.6c-11.9-13.7-22.8-27.8-32.8-42.4c-61.6-89.6-88.1-194.9-81-297.9c8.4-119.6,62.4-236.1,160.1-321.1
				c177.8-154.6,439.1-151.3,612.6-2.2c3.8,3.2,7.6,6.5,11.3,10l0.1,0.1c13,11.9,25.5,24.7,37.4,38.4l75.8,87.2
				c46.4,53.4,82.3,115,105.9,181.7L261.5-115.7z"/>
		</g>
	</g>
	<g transform="matrix(1,0.0000036973613077861955,-0.0000036973613077861955,1,797.564208984375,548.0580444335938)">
		<g transform="matrix(1,0,0,1,175.55999755859375,40.66400146484375)">
			<path class="st4" d="M-367.7-226.5c10.9-7,23.9-10.7,36.9-10.3c17.5,0.4,37.3,12.3,36.3,29.8c-0.4,6.6-3.8,12.7-7.3,18.3
				c-9.6,15.6-21.6,30.7-38.5,37.8c-16.9,7.1-39.4,3.2-48.6-12.6c-6.2-10.8-5-24.5,0.1-35.8c5.1-11.3,13.6-20.7,22-29.8
				L-367.7-226.5z"/>
		</g>
		<g transform="matrix(1,0,0,1,233.47000122070312,24.059999465942383)">
			<path class="st4" d="M-514-75.1c12.2-3,24-8.8,32.5-18.1c8.5-9.3,13.3-22.3,11.1-34.7c-1.9-10.3-8.3-19.8-7.5-30.2
				c0.9-11.3,10.1-20.3,13.5-31.1c0.7-2.3,1.1-5.1-0.5-6.9c-1-1.2-2.6-1.6-4.1-1.9c-3.1-0.6-6.1-0.7-9.2-0.5
				c-14.4,7.8-28.6,16.4-42.4,25.8l0,0c-16.1,18.1-28.2,41.6-32.8,56.8c-3.1,10.4-4.7,22.5,1.4,31.5C-544.2-73-527.5-71.8-514-75.1z
				"/>
		</g>
		<g transform="matrix(1,0,0,1,312.9209899902344,26.350000381469727)">
			<path class="st4" d="M-739.7-25.9c-0.7,4.5-0.8,8.7-0.1,12.2c1.6,7.6,6.7,14.1,13,18.7c15.6,11.4,38,10.8,54.6,1
				c16.6-9.8,27.6-27.5,32.1-46.2c2-8.2,2.8-17-0.5-24.8c-1.7-4.1-4.5-7.6-7.6-10.7c-12-12.2-30.9-17.5-47.3-13L-739.7-25.9z"/>
		</g>
		<g transform="matrix(1,0,0,1,276.0169982910156,73.37699890136719)">
			<path class="st4" d="M-523.5-95.2c10.9,4,18.1,15.3,18.9,26.9c0.8,11.6-4.1,23-11.8,31.7c-8.4,9.6-20.7,16.3-33.3,15.4
				c-13.8-1-26.3-11.6-29.8-25C-587.1-75.2-551.3-105.4-523.5-95.2z"/>
		</g>
		<g transform="matrix(1,0,0,1,223.5279998779297,72.6449966430664)">
			<path class="st4" d="M-401.4-163.9c10.4,3.8,17.6,14.1,19.4,25c1.9,10.9-1,22.2-6.2,31.9c-4.6,8.6-11.1,16.4-19.6,21
				c-8.5,4.6-19.2,5.8-28.1,1.8c-13.5-6.1-19.6-23.1-16.6-37.6C-448.4-141.6-424.8-172.6-401.4-163.9z"/>
		</g>
		<g transform="matrix(1,0,0,1,248.11399841308594,117.5260009765625)">
			<path class="st4" d="M-389.1-83.6c7.5,17.6-0.7,40.4-17.8,48.9c-17.1,8.5-40.5,1-49.2-16C-479.3-95.7-409.9-132.4-389.1-83.6z"/>
		</g>
		<g transform="matrix(1,0,0,1,368.4410095214844,42.685001373291016)">
			<path class="st4" d="M-835.6,46.2c5.8,5.3,13.8,9.4,21.7,12.7c7.9,3.4,15.9,6.8,24.5,7.3c8.5,0.5,17.8-2.3,22.8-9.3
				c6-8.4,4-20.5-1.9-29c-5.9-8.4-15.1-14-24-19.2c-7.5-4.4-16.6-7.8-25.1-8.1L-835.6,46.2z"/>
		</g>
		<g transform="matrix(1,0,0,1,331.302001953125,69.5199966430664)">
			<path class="st4" d="M-661.9-27.1c3.4,1.2,5.9,4,8.3,6.7c7.4,8.3,15.3,17.9,14.5,29c-0.9,13.5-14.3,22.7-27.3,26.6
				c-9,2.8-19.7,3.7-27.2-2C-717.9,14.5-693.4-38.6-661.9-27.1z"/>
		</g>
		<g transform="matrix(1,0,0,1,127.23100280761719,36.310001373291016)">
			<path class="st4" d="M-252.7-240c20.8,0.1,43.5-7.2,54.6-24.2c-24.6,2.5-49.1,7-73.2,13.4c0.1,1.1,0.4,2.1,0.8,3.1
				C-267.7-241.5-259.6-240-252.7-240z"/>
		</g>
		<g transform="matrix(1,0,0,1,177.24200439453125,79.50800323486328)">
			<path class="st4" d="M-312.4-194.6c7.2-4.6,15.8-6.7,24.3-6c4.4,0.3,9.1,1.7,11.7,5.2c4.2,5.7,1.2,13.8-2.4,19.9
				c-5,8.5-11.1,16.8-20.1,20.8c-8.9,4-21.2,2.1-26-6.5c-5.6-10,1.1-22.2,7.7-31.6L-312.4-194.6z"/>
		</g>
		<g transform="matrix(1,0,0,1,44.96099853515625,135.7949981689453)">
			<path class="st4" d="M46.4-305.7c5.5,6.7,12.8,11.6,20.1,16.3c5.6,3.7,11.4,7.5,18.1,8.6c6.4,1.1,12.9-0.5,19.2-2
				c6.5-1.6,13.2-3.3,18.5-7.4c5.3-4.1,8.9-11.2,6.8-17.5c-1-3.2-3.3-5.8-5.6-8.3c-5.9-6.4-12.2-12.4-19.2-17.5c0,0,0,0,0,0
				c-14.4-5.7-29.1-10.6-43.9-14.8c-2.9,0.4-5.7,1.3-8.4,2.7C36.2-337.2,36-318.5,46.4-305.7z"/>
		</g>
		<g transform="matrix(1,0,0,1,17.93600082397461,185.2050018310547)">
			<path class="st4" d="M204.8-304.5c12.3,4.3,27.1,2.8,36.9-5.8c2.1-1.9,4.1-4.2,5-6.8l-63.4-41.5c-6,3.2-13.6,15.1-12.7,22
				c0.4,3,2.1,5.6,3.9,8.1C182.4-318,192.5-308.8,204.8-304.5z"/>
		</g>
		<g transform="matrix(1,0,0,1,59.612998962402344,179.8730010986328)">
			<path class="st4" d="M138.8-276.2c0.3,2.7,0.1,5.5-1.1,7.9c-1.1,2.1-2.8,3.7-4.7,5.1c-19.7,15.7-66.7,9.8-55.7-24.6
				C86.7-317,136-303.7,138.8-276.2z"/>
		</g>
		<g transform="matrix(1,0,0,1,38.32099914550781,220.61500549316406)">
			<path class="st4" d="M172.8-299c0.2-5,4.6-8.8,8.9-11.4c10.2-6,23.8-8.6,33.6-2.1c9.9,6.5,12.7,21.2,6.9,31.6
				c-5.8,10.3-18.8,15.7-30.5,13.5c-14.6-2.7-26.5-18.2-22.6-32.5c2.2-0.7,4.3-1.5,6.5-2.2L172.8-299z"/>
		</g>
		<g transform="matrix(1,0,0,1,8.255999565124512,228.8000030517578)">
			<path class="st4" d="M277-310.8c5.6,3,12,4.9,18.3,4.1c5-0.7,9.9-3.3,12.9-7.3c-7.4-7.8-15-15.2-22.8-22.3l0-0.1
				c-3.7-3.4-7.5-6.8-11.3-10c-1.1-1-2.2-1.9-3.3-2.8c-6.5,3.9-11,10.9-10.1,18.4l-1.9,1.6C262.9-321.4,269.3-315,277-310.8z"/>
		</g>
		<g transform="matrix(1,0,0,1,69.56500244140625,214.656005859375)">
			<path class="st4" d="M94.5-265c2.8-6.2,9.7-9.9,16.5-10c6.8-0.1,13.4,2.8,18.7,6.9c5.1,4,9.7,9.6,9.6,16.1
				c-0.1,10.4-12.5,17.4-22.6,15.1c-10.2-2.3-17.7-10.9-22.9-19.9L94.5-265z"/>
		</g>
		<g transform="matrix(1,0,0,1,470.8349914550781,135.7050018310547)">
			<path class="st4" d="M-942.7,237.7c0.1,0,0.3,0.1,0.4,0.1c17.2,5.7,39-2.1,45.1-19.1c3.9-11.1,0.9-23.5-4.9-33.8
				c-9.5-17-36.9-37.4-57.6-30.9C-956.6,182.2-950.9,210.2-942.7,237.7z"/>
		</g>
		<g transform="matrix(1,0,0,1,495.0660095214844,184.64999389648438)">
			<path class="st4" d="M-928.9,279.5c7.7,0,15.5-2.7,20.1-8.8c7-9.2,4.1-22.8-2.3-32.4c-7.6-11.3-29-28.5-44-22.4
				c-0.9,0.4-1.7,0.7-2.4,1.2C-949.6,238.3-940,259.2-928.9,279.5z"/>
		</g>
		<g transform="matrix(1,0,0,1,447.8340148925781,179.92100524902344)">
			<path class="st4" d="M-792.2,229.3c-9.1,10.8-25.9,13.7-38.8,8c-12.9-5.8-21.7-19.2-23.4-33.2
				C-861.8,141.7-760.6,191.9-792.2,229.3z"/>
		</g>
		<g transform="matrix(1,0,0,1,481.90899658203125,226.5850067138672)">
			<path class="st4" d="M-847.5,218.5c13.9-0.1,25,15,22.5,28.7c-2.5,13.6-16.4,23.6-30.3,23.6c-5.2,0-10.6-1.3-14.4-4.8
				c-2.1-1.9-3.6-4.4-4.7-7c-3.9-9.1-3-20.1,2.2-28.5c5.2-8.4,14.6-14.1,24.5-14.7L-847.5,218.5z"/>
		</g>
		<g transform="matrix(1,0,0,1,507.6260070800781,231.48500061035156)">
			<path class="st4" d="M-889.6,308.2c2.2-1.3,3.9-3.3,4.3-5.8c0.4-2.5-0.4-5-1.4-7.3c-3.6-9-26.8-40.5-43.4-43
				c4.1,6.7,8.5,13.4,13,20C-908.6,284.5-899.5,296.5-889.6,308.2z"/>
		</g>
	</g>
	<g transform="matrix(1,0.0000036973613077861955,-0.0000036973613077861955,1,1035.273681640625,946.9009399414062)">
		<g transform="matrix(1,0,0,1,28.73200035095215,9.677000045776367)">
			<path class="st4" d="M-114.8,70.8L-114.8,70.8c5.4-1.3,8.8-6.9,7.5-12.3l-3-12.3c-1.3-5.4-6.9-8.8-12.3-7.5
				c-5.4,1.3-8.8,6.9-7.5,12.3l3,12.3C-125.8,68.7-120.2,72.1-114.8,70.8z"/>
		</g>
		<g transform="matrix(1,0,0,1,8.178999900817871,9.677000045776367)">
			<path class="st4" d="M-54.5,36.2L-54.5,36.2c-2.1,5.2-8,7.7-13.2,5.7l-11.8-4.7c-5.2-2.1-7.7-8-5.7-13.2c2.1-5.2,8-7.7,13.2-5.7
				l11.8,4.7C-54.9,25-52.4,31-54.5,36.2z"/>
		</g>
	</g>
	<g transform="matrix(1,0.0000036973613077861955,-0.0000036973613077861955,1,1143.22314453125,825.4513549804688)">
		<g transform="matrix(1,0,0,1,83.4739990234375,110.21299743652344)">
			<path class="st4" d="M-755.8,215.9l26.2,30.1c46.2,53.1,102,97.1,164.4,129.7c10.4,5.5,20.9,10.6,31.6,15.3
				c19.9,8.9,40.1,16.5,60.7,23l0.1,0c62.6-15,117.7-58.3,111.3-130.2c-7.7-87.6-111.1-158.3-188.2-183
				c-52.8-16.8-119.8-5-156.4,35.5c-3.8,4.2-7.8,8.4-12.3,12c-12.1,9.7-22,22.3-28.8,36.6C-752,194.7-754.7,205.2-755.8,215.9z"/>
		</g>
	</g>
	<g transform="matrix(1,0.0000036973613077861955,-0.0000036973613077861955,1,797.2871704101562,821.9480590820312)">
		<g transform="matrix(1,0,0,1,83.4739990234375,112.31300354003906)">
			<path class="st4" d="M310.1,2c71.9,16.7,123.1-34.3,146-95.9c-4.1-20.4-9.3-40.6-15.6-60.5l-0.1-0.1c-1.8-6-3.8-11.9-5.9-17.9
				l-5-14.1C406-253.1,370-314.8,323.6-368.2l-25.8-29.7c-10.8-0.5-21.5,0.8-32.1,4.1c-15.9,4.9-32.7,10.4-44.7,21.1
				c-2.7,2.4-5.4,4.6-8.4,6.5c-47.4,29.8-67.1,100.2-57.5,156.2C168.8-130,224.5-17.9,310.1,2z"/>
		</g>
	</g>
	<g transform="matrix(1,0.0000036973613077861955,-0.0000036973613077861955,1,1211.2930908203125,851.7335815429688)">
		<g transform="matrix(1,0,0,1,30.274999618530273,32.67900085449219)">
			<path class="st1" d="M-684.7,232.9c1.5-17.6,12.8-33,28.1-41.3c9-4.9,20.6-6.7,31.2-4.7c8.9,0.1,17.6,2.5,25.4,7.8
				c11.6,7.8,19.6,21,22.1,34.6c4.7,25.7-6.3,51.6-30,63.6c-21.1,10.7-46-2.7-61.3-17.7C-680.4,264.1-686.1,248.4-684.7,232.9z"/>
		</g>
	</g>
	<g transform="matrix(1,0.0000036973613077861955,-0.0000036973613077861955,1,825.6051025390625,851.732177734375)">
		<g transform="matrix(1,0,0,1,30.274999618530273,32.67900085449219)">
			<path class="st1" d="M233.6-230.2c1.5-17.6,12.8-33,28.1-41.3c9-4.9,20.6-6.7,31.2-4.7c8.9,0.1,17.6,2.5,25.4,7.8
				c11.6,7.8,19.6,21,22.1,34.6c4.7,25.7-6.3,51.6-30,63.6c-21.1,10.7-46-2.7-61.3-17.7C238-198.9,232.3-214.6,233.6-230.2z"/>
		</g>
	</g>
	<g transform="matrix(1,0.00005968971527181566,-0.00005968971527181566,1,1027.114501953125,1037.029052734375)">
		<g transform="matrix(1,0,0,1,32.85499954223633,19.429000854492188)">
			<path class="st4" d="M-48.5,93c5.1-4.4,11.5-3,16.1,1.1c5.9,5.4,15.1,9.7,23.9,10.5c8.7,0.8,18-0.8,25.3-5.7
				C33,88,37.1,66,30.6,48.5c-3.9-10.5,10-17.2,15.7-7.5c14.1,23.7,4.8,58.5-17.2,74.2c-23.6,17-58.4,15.3-78.8-6.1
				C-53.8,104.6-53,96.9-48.5,93z"/>
		</g>
	</g>
	
		<g transform="matrix(0.981627881526947,-0.1908053606748581,0.1908053606748581,0.981627881526947,1004.9825439453125,314.2879943847656)">
		<g transform="matrix(1,0,0,1,44.375999450683594,27.552000045776367)">
			<path class="st4" d="M-810-311.5c22.6,10.7,49.7,1.1,60.4-21.6c10.7-22.6,1.1-49.7-21.6-60.4c-22.6-10.7-49.7-1.1-60.4,21.6
				C-842.3-349.3-832.6-322.3-810-311.5z"/>
		</g>
		<g transform="matrix(1,0,0,1,19.740999221801758,112.25900268554688)">
			<path class="st4" d="M-610.7-234.1c-32.6-69-74.3-129.2-121.8-178.9c-2.7-2.9-7.2-2.9-10-0.1c-2.5,2.5-2.8,6.3-0.9,9.2
				c38,56.8,68.2,123.9,86.9,198.8c3.6,14.5,17,21.8,30.4,15.2c13.4-6.6,21.3-25,17.1-39.9C-609.6-231.3-610.1-232.8-610.7-234.1z"
				/>
		</g>
	</g>
	
		<g transform="matrix(0.9993915557861328,-0.034878358244895935,0.034878358244895935,0.9993915557861328,1109.0550537109375,1313.9097900390625)">
		<g transform="matrix(0.9395999908447266,0,0,0.6486499905586243,150.75,-461.75)">
			<path class="st5" d="M-787.4,368.4l7.2,13.9l108.9-118.9l-7.2-13.9L-787.4,368.4z"/>
			<path class="st6" d="M-787.4,368.4l7.2,13.9l108.9-118.9l-7.2-13.9L-787.4,368.4z"/>
		</g>
	</g>
	
		<g transform="matrix(0.9684429168701172,0.000003580683369364124,-0.0000036973613077861955,1,708.420654296875,1303.6497802734375)">
		<g transform="matrix(0.9395999908447266,0,0,0.6486499905586243,150.75,-461.75)">
			<path class="st5" d="M211.1-314.8l8.1,13.1l102.9-125.5l-8.1-13.1L211.1-314.8z"/>
			<path class="st6" d="M211.1-314.8l8.1,13.1l102.9-125.5l-8.1-13.1L211.1-314.8z"/>
		</g>
	</g>
</g>
<g transform="matrix(0.9511135220527649,-0.30884143710136414,0.30884143710136414,0.9511135220527649,996.0831298828125,1010.7099609375)">
	<g transform="matrix(1,0,0,1,280.302001953125,252.81199645996094)">
		<path class="st3" d="M-1188.1-82.8c0.8-12.1,4.3-24.9,14-34.2c9.7-9.3,26.8-13.7,38.5-7.4c13.1,7.1,13.9,23,14.4,36.5
			c2,51.2,18.4,100.5,37,148.3c4.2,10.8,8.9,22.1,18.6,29.7c9.8,7.6,26.2,10.2,37,2.6c10.1-7.1,11.3-19.6,11-30.5
			c-1.5-51.3-18.5-101.5-48.8-144.4c-7-9.9-14.8-19.8-16.9-31.4c-2.1-11.6,3.5-25.6,16.4-30.4c9.7-3.6,21.1-1.1,29,4.4
			c7.9,5.4,12.9,13.3,17.2,21.2c35.1,65,30.4,142.6,59.9,209.7c1.5,3.3,3.2,6.8,6.6,8.7c7.8,4.5,18.6-1.3,25.2-7.6
			c19.2-18.4,29-43.3,50.5-59.7c3.6-2.7,7.8-5.3,12.4-5.3c10.5-0.1,14.1,11.6,12.9,20.6c-2.7,19.4-13.5,36.9-26.8,53.7
			c-42.5,54-43.1,130-0.5,184c36.7,46.4,85.5,85.6,142.4,113.8c58.1,28.8,171,19.6,271.5,5.2c2.4-0.3,4.8-0.7,7.2-1.2
			c17.3-3.4,52.2-9.5,82.9-14.7c30.8-5.3,62.5-0.7,90.5,13.1c3.9,1.9,7.8,3.5,11.9,5c2.3,0.8,5.2,2,8.1,3.7
			c68.6,39.7,163.7,203.1,151.7,240.5c-15.3,48-218.1,35.6-221.8,35.8c-35.7,2-73.2,2.5-98.4,1c-83.3-4.8-172.5-23.8-245.7-49.2
			c-103.4-35.9-207.6-135.5-275.2-250.9l103.8-69l-15.2-16.1l-104,57.6c-4.1-7.9-8.1-15.8-11.8-23.7l101.5-49.5l-16.3-22.4
			l-98.4,41.7c-7.9-19.4-14.5-38.8-19.9-58.2c-5-18.1-13.2-35.2-24.6-50.2C-1087.3,136-1128.5,70.9-1163.1,3
			C-1176.9-24.1-1189.9-52.6-1188.1-82.8z"/>
	</g>
	<g transform="matrix(1,0,0,1,440.39300537109375,249.74200439453125)">
		<path class="st4" d="M-1041.3,290l-101.5,49.5l-0.7,0.3l-13.2-30.3l0.6-0.3l98.4-41.7L-1041.3,290z"/>
	</g>
	<g transform="matrix(1,0,0,1,427.49200439453125,275.4179992675781)">
		<path class="st4" d="M-998.9,296.1l-103.8,69l-0.2,0.1l-15.3-27.6l0.2-0.1l104-57.6L-998.9,296.1z"/>
	</g>
</g>
<g>
	<g transform="matrix(1,0,0,1,731.722900390625,1276.238037109375)">
		<g transform="matrix(1,0,0,1,357.7950134277344,464.43499755859375)">
			<path class="st3" d="M726.6,1338.3c1.4,0.2,5.2-7.5,10.9-10.3c11.6-5.7,25.8-9.5,42.6-9.9c42.8-1,65.7,10.3,75,16.4
				c0.3,0.2,0.5,0.4,0.7,0.7c6,7.8,16.1,20.6,27.6,36.3c0.7,0.9,1.6,1.6,2.5,2.1c0.4,0.2,0.8,0.5,1.1,0.9c2,2.6,4,5.3,6,8.2
				c3.8,5.2,12.1,2.6,12.2-3.9l10.6-615.1l0.1-1.3c8.9-61.9,81.6-221.3,193.6-186.7c79.8,24.7,192.2,137.3,282.2,240.2
				c4.6,5.3,9.1,10.6,13.6,15.8c0.3,0.3,15.6,19.2,16.9,20.7c5.6,6.6,4.2-11.8,5.6-20.4c4-24,17.3-56.8,57.2-82.5
				c49.6-32,90.4-21.9,97.5-19.7c0.8,0.2,1.6,0.4,2.4,0.4c2.5,0.1,8.6,0.4,17.5,0.9c5.1,0.3,8.6-4.9,6.6-9.5
				c-27-61.6-72.6-145.4-126.4-234.8c-12.7-21.2-26-42.7-39.5-64.3c-4.2-6.8-8.5-13.5-12.8-20.3c-15.3-24.1-30.9-48.3-46.7-72.2
				c-58.1-87.9-118.1-172.1-170.6-237.3c-15-18.7-31-37.8-47.9-57C1061.8-84.4,922.6-211.2,749.6-276.8c-0.4-0.2-0.9-0.3-1.4-0.4
				c-1.8-0.2-3-1.9-2.9-3.7c4.3-57.8,83.9-254.8,33.6-292.1c-0.4-0.3-0.7-0.6-0.9-1c-6-10.6-15.9-16.7-30.9-16.2
				c-29.4,0.9-196.7,50.6-313.4,135.6c-2.3,1.6-32.5,27.2-34,28.4L123.1-186.1c-0.3,0.2-37.7,32.8-45.4,39.5c-1.1,1-2.2,2-3.1,3.2
				c0,0,0,0,0,0c-0.1,0.1-3.1,3-4.3,4.4C47.2-113.7-40.5-17.9-110.6,61.5c-21,21.6-100.5,103.4-118.8,119c-4.5,3.8-3.8,4.6,0,3.5
				c16.2-4.8,33.6-4.7,49.2,1.8c23.3,9.7,73,3,101.5-2.1c13.5-2.4,26.1-8.2,36.6-17L58.9,83.1c1.4-1.2,3.5-1,4.7,0.3
				c49.9,55,109.7,119.1,130.8,141.9c0.1,0.1,0.2,0.2,0.2,0.3c49.1,67.2,98.7,148.1,147,235.5c0,0,0,0,0,0c4,7.2,8,14.6,12,21.9
				c4,7.4,8,14.8,12,22.2c12.2,22.8,24.3,45.9,36.2,69.3c4.1,8,8.2,16.1,12.3,24.2l0,0c11.2,22.2,22.3,44.7,33.2,67.2l0,0
				c77.2,158.6,146.5,320.6,199,450.6c27.4,67.9,50.2,136.8,68.3,198.1C715.5,1317.2,724,1338,726.6,1338.3z"/>
		</g>
	</g>
	<g transform="matrix(1,0,0,1,1025.5638427734375,1732.1700439453125)">
		<g transform="matrix(1,0,0,1,15.168999671936035,11.824000358581543)">
			<path class="st4" d="M895.9,342.9c-20.6,17.9-48.4-14.1-27.8-32C888.7,293,916.5,325,895.9,342.9z"/>
		</g>
	</g>
	<g transform="matrix(1,0,0,1,813.3928833007812,1614.1380615234375)">
		<g transform="matrix(1,0,0,1,12.854999542236328,349.6300048828125)">
			<path class="st4" d="M1644.4,174c4.4,4.8,10.2,7.8,15.9,10.6c5.9,3,11.9,6,18.2,6.4c6.2,0.5,12.7-2.3,14.5-8.2
				c0.4-1.3,0.5-2.6,0.5-4c-15.3-24.1-30.9-48.3-46.7-72.2c-12.7,0.4-20,12.1-18.8,25.6c0.7,8.2,3.9,16.3,6.9,24.2
				C1637.4,162.7,1639.9,169.1,1644.4,174z"/>
		</g>
		<g transform="matrix(1,0,0,1,19.235000610351562,406.07000732421875)">
			<path class="st4" d="M1728.2,213.5c3.5,0,7.1-0.8,9.4-3.3c0.8-0.9,1.4-2,1.8-3.2c-12.7-21.2-26-42.7-39.5-64.3
				c-5.4,1.2-10.9,3.9-12.8,7.4c-1.3,2.4-1.3,5.4-1.2,8.2c0.5,12.4,3.5,25.3,10.8,36.1C1704,205.2,1716.1,213.5,1728.2,213.5z"/>
		</g>
		<g transform="matrix(1,0,0,1,43.42599868774414,378.1050109863281)">
			<path class="st4" d="M1641.6,223.5c-1.2,2.1-2.8,4-5,4.9c-1.9,0.8-4.1,0.8-6.3,0.7c-23.5-1.2-56.7-35-30.2-52.5
				C1622.8,161.7,1653.8,202.1,1641.6,223.5z"/>
		</g>
		<g transform="matrix(1,0,0,1,49.48699951171875,418.6730041503906)">
			<path class="st4" d="M1636,203.7c2.8-3.4,8.2-3.4,12.9-2.5c11,2.1,22.9,8.8,27.1,19.7c4.2,10.9-1.3,23.1-11.2,26.9
				c-9.9,3.7-22.7-0.7-30.6-9.5c-9.9-11.1-11-29.6-0.4-37.4c2.1,0.8,4.1,1.7,6.2,2.5L1636,203.7z"/>
		</g>
		<g transform="matrix(1,0,0,1,30.514999389648438,446.53399658203125)">
			<path class="st4" d="M1712,195.3c4.6-8.5,17.6-9.3,26.3-3c8.7,6.3,13,17.7,12.6,27.8c-0.3,6.4-2.5,12.9-7.8,15.8
				c-4.9,2.7-11.7,1.6-17-1.7c-5.3-3.4-9.3-8.7-12-14.4c-3.7-7.8-5.3-16.4-4.5-24.5L1712,195.3z"/>
		</g>
		<g transform="matrix(1,0,0,1,68.86699676513672,395.7149963378906)">
			<path class="st4" d="M1565.6,217c5.4-2.6,12.7-0.9,18,3.2c5.3,4.2,8.8,10.4,10.8,16.7c1.9,6,2.4,12.9-1,17.5
				c-5.5,7.4-18.7,4.5-25.4-3.5c-6.7-8-8-18.9-7.3-28.5L1565.6,217z"/>
		</g>
		<g transform="matrix(1,0,0,1,491.9259948730469,112.84600067138672)">
			<path class="st4" d="M231.6,679.5L231.6,679.5c1.8,0.9,3.6,1.6,5.6,2.1c16.2,3.8,26-9.8,24.7-25.9c-0.7-8.4-3.7-16.7-6.7-24.7
				c-2.3-6.3-4.7-12.8-9.1-17.8c-4.3-4.8-10-7.8-15.5-10.7c-5.7-3-11.6-5.9-17.7-6.3c-6.1-0.4-12.5,2.6-14.2,8.6
				c-0.7,2.4-0.6,5-0.3,7.5l0,0C209.6,634.6,220.7,657.1,231.6,679.5z"/>
		</g>
		<g transform="matrix(1,0,0,1,482.19000244140625,56.15999984741211)">
			<path class="st4" d="M195.8,644.9c5.2-1.3,10.4-4.2,12.3-7.7c1.2-2.5,1.3-5.5,1.2-8.4c-0.5-12.7-3.3-25.9-10.4-36.8
				c-7.1-11-18.9-19.3-30.7-19.2c-3.1,0-6.4,0.7-8.6,2.8C171.8,598.4,183.9,621.5,195.8,644.9z"/>
		</g>
		<g transform="matrix(1,0,0,1,458.7590026855469,82.91799926757812)">
			<path class="st4" d="M252.4,563.7c1.2-2.1,2.7-4.1,4.9-5.1c1.9-0.9,4-0.9,6.1-0.8c22.9,0.9,55.2,35.1,29.2,53.4
				C270.6,626.7,240.4,585.7,252.4,563.7z"/>
		</g>
		<g transform="matrix(1,0,0,1,451.4670104980469,42.54100036621094)">
			<path class="st4" d="M259.4,582.8c-2.8,3.6-8,3.6-12.6,2.7c-10.8-2-22.3-8.7-26.3-19.8c-4.1-11.1,1.4-23.7,11-27.6
				c9.7-3.9,22.2,0.4,29.8,9.4c9.6,11.2,10.6,30.2,0.3,38.3c-2-0.8-4-1.7-6-2.5L259.4,582.8z"/>
		</g>
		<g transform="matrix(1,0,0,1,469.260009765625,15.449999809265137)">
			<path class="st4" d="M160.5,594.1c8.5,6.2,21,5.2,25.5-3.5l2.3,0c0.8-8.3-0.7-17.1-4.3-25.1c-2.6-5.8-6.5-11.2-11.6-14.6
				c-5.1-3.4-11.7-4.4-16.5-1.6c-5.2,3-7.4,9.7-7.7,16.3c-0.1,2.1,0,4.3,0.3,6.5c0,0,0,0,0,0C152.6,579.5,156.6,586.8,160.5,594.1z"
				/>
		</g>
		<g transform="matrix(1,0,0,1,432.3999938964844,64.86699676513672)">
			<path class="st4" d="M328.2,569.7c-5.3,2.8-12.4,1.1-17.5-3.1c-5.2-4.2-8.6-10.5-10.5-17c-1.8-6.2-2.3-13.2,1.1-18
				c5.4-7.6,18.3-4.9,24.8,3.2c6.5,8.1,7.7,19.2,7,29.1L328.2,569.7z"/>
		</g>
	</g>
	<g transform="matrix(1,0,0,1,1369.349853515625,2100.448974609375)">
		<g transform="matrix(1,0,0,1,118.60199737548828,107.58899688720703)">
			<path class="st3" d="M326.9,825.5c14.9-10.5,34.3-18.5,58.5-20.6c63.1-5.5,84.8,15.9,84.8,15.9c0.2,2.9,22,28.2,44.3,61.5
				c20.4,30.4,41.4,67.6,46.8,100.5c11.4,69-218.9,345.8-250.8,312.1C283.7,1266.6,303.4,842,326.9,825.5z"/>
		</g>
	</g>
	<g transform="matrix(1,0,0,1,730.5069580078125,2130.590087890625)">
		<g transform="matrix(1,0,0,1,141.12100219726562,101.09600067138672)">
			<path class="st3" d="M1632.3,350.3c0,0-0.5-3.4-0.4-9.1c0-21,6.9-74.8,70.4-117.3c61.4-41.1,107.7-27.3,107.7-27.3
				s12.2-0.3,31.9-0.4c71-0.1,239.8,3.9,290.3,42.5c53.7,41.1-373,265.5-413.4,248.9C1663.6,465,1632.3,350.3,1632.3,350.3z"/>
		</g>
	</g>
	<g transform="matrix(1,0,0,1,918.6969604492188,1208.9639892578125)">
		<g transform="matrix(1,0,0,1,130.50799560546875,34.5260009765625)">
			<path class="st7" d="M169.5,308.9L434.7,78.4c26.1-22.7,28.9-62.3,6.2-88.5c-22.7-26.1-62.3-28.9-88.5-6.2L87.2,214.2
				c-26.1,22.7-28.9,62.3-6.2,88.5C103.8,328.8,143.4,331.6,169.5,308.9z"/>
		</g>
	</g>
	
		<g transform="matrix(0.9961947202682495,0.08715574443340302,-0.08715574443340302,0.9961947202682495,509.3760986328125,1242.4276123046875)">
		<g transform="matrix(1,0,0,1,115.19599914550781,287.1650085449219)">
			<path class="st3" d="M1689.6-481.8l-40,110.7l10.6,2c-12.3-2.1-24.7-3.4-37.3-3.9l36-121.7
				C1669.2-490.6,1679.4-486.3,1689.6-481.8z"/>
		</g>
		<g transform="matrix(1,0,0,1,88.3479995727539,448.3760070800781)">
			<path class="st3" d="M1751.2-626.7c33.5,16.8,65.2,35.6,94,56.3c92.7,21.3,183.7,50.3,271.6,86.8c32.6,13.6,65.9,28.9,89.2,55.5
				c11.5,13.2,20.6,29.9,16.3,48c-2.3,9.7-9.2,18-18.8,20.9c-17.1,5.1-31.7-8.6-44-20.4c-43.5-41.6-96.2-72.2-149.6-100
				c-15.2-7.9-31.4-15.9-49-11.1c-8.1,2.2-15.1,7.8-18.1,15.7c-5.7,14.7,4.9,27.9,15.3,38c43.2,42,97.1,72.9,155.3,88.9
				c13.4,3.7,27.4,6.8,38.5,15.1c11.1,8.3,18.4,23.8,12.5,36.4c-4.4,9.5-15.1,14.9-25.5,15.5c-10.4,0.7-20.7-2.6-30.4-6.4
				c-79.8-31.2-139.9-99.5-217.3-136.4c-5.9-2.8-12.6-5.5-19,0.6c-3.5,3.3-5.5,7.9-5.8,12.8c-1.8,31.8,14.8,62.3,10.2,93.9
				c-0.4,2.8-1.4,5.5-3.1,7.7c-7.7,9.5-21.2,1.6-28-7.2c-37.2-48.3-18.6-123.9-49.2-174.5c-33.2-18-64-30-95-36.9l6.6,1.3
				L1751.2-626.7z"/>
		</g>
		<g transform="matrix(1,0,0,1,288.2279968261719,140.75399780273438)">
			<path class="st3" d="M674-72.9c-7.8-9.1-7.9-22.6-0.9-32.4l17.2-24.2c36.5-52.2,107.3-114.8,183.7-167c0,0,7.5-6.8,19.1-12.7
				c51.6-33.6,104.7-61.8,150.6-78.1c106.2-37.8,263.9-24.1,408.1,26.3L1425-226.8c-29.2,0.8-60.1,5.2-94.5,12.5
				c-25.5,5.4-77.2,21.1-107.2,36.7c-38.8,20.2-101.2,70-157,122.1c-71.1,66.3-177.2,78.2-261.7,30l-51.1-29.2
				C730-68.1,691.3-52.7,674-72.9z"/>
		</g>
		<g transform="matrix(1,0,0,1,108.31500244140625,300.8630065917969)">
			<path class="st4" d="M1696.5-495.5l0.7-1.8l34.4,17.6l-0.3,0.6l-43.4,100.4l-6.6-1.3l-14.2-2.8l-10.6-2L1696.5-495.5z"/>
		</g>
		<g transform="matrix(1,0,0,1,121.78500366210938,268.92999267578125)">
			<path class="st4" d="M1618.7-491.6l33.9,13.9l-0.4,1.2l-36,121.7l-0.2,0.8l-24.6-0.5l0.1-0.5l26.8-134.2L1618.7-491.6z"/>
		</g>
	</g>
</g>
</svg>
